<?xml version="1.0" encoding="UTF-8"?>
<svg version="1.1" xmlns="http://www.w3.org/2000/svg" width="681" height="400">
<path d="M0 0 C224.73 0 449.46 0 681 0 C681 132 681 264 681 400 C456.27 400 231.54 400 0 400 C0 268 0 136 0 0 Z " fill="#FCFCFC" transform="translate(0,0)"/>
<path d="M0 0 C68.64 0 137.28 0 208 0 C208 24.09 208 48.18 208 73 C210.97 73 213.94 73 217 73 C217 72.34 217 71.68 217 71 C217.66 71 218.32 71 219 71 C219.433125 71.763125 219.86625 72.52625 220.3125 73.3125 C222.20048159 76.31928549 223.88138542 77.39854927 227 79 C226.67 81.31 226.34 83.62 226 86 C228.64 86 231.28 86 234 86 C234.04125 84.96875 234.0825 83.9375 234.125 82.875 C235.06268738 78.72238446 235.08467415 78.7193333 238.1875 76.5 C240.79945177 74.16198464 240.99536694 73.04875483 241.3359375 69.46484375 C241.18266533 65.29727606 240.55827038 61.88905441 239 58 C236.20995308 55.89779208 233.88635892 54.98175707 230.53125 54.0546875 C228 53 228 53 226.65625 50.3828125 C226.4396875 49.59648438 226.223125 48.81015625 226 48 C223.03 49.98 223.03 49.98 220 52 C219 51 219 51 218.6875 48.125 C219 45 219 45 220.5625 43.125 C223 42 223 42 226.21875 42.0234375 C230.05089736 41.99968452 233.22296794 41.40251848 236.9375 40.5 C249.3799007 37.74235234 249.3799007 37.74235234 255.125 40.5 C262.38948807 46.81694614 267.66332043 55.65328172 270 65 C270.06700487 66.89567946 270.12893756 68.79154095 270.1875 70.6875 C270.58682347 76.85397592 272.76566225 80.65454078 276.30859375 85.625 C279.34939527 89.89476287 280.46281438 92.67763464 280 98 C279.34 98.66 278.68 99.32 278 100 C277.01 100 276.02 100 275 100 C275.30757077 104.06288893 275.62191839 108.12522608 275.9375 112.1875 C276.02451172 113.33798828 276.11152344 114.48847656 276.20117188 115.67382812 C276.33168945 117.34155273 276.33168945 117.34155273 276.46484375 119.04296875 C276.543396 120.06414795 276.62194824 121.08532715 276.70288086 122.13745117 C276.94159683 124.93745064 276.94159683 124.93745064 277.51416016 127.3972168 C279.9681919 140.54416775 277.05878503 153.60035853 274.0625 166.375 C273.68392171 168.05432196 273.30696121 169.73400946 272.93164062 171.4140625 C270.30045642 183.09863073 270.30045642 183.09863073 269 187 C265.37 186.67 261.74 186.34 258 186 C257.855625 187.60875 257.71125 189.2175 257.5625 190.875 C257.125 195.75 257.125 195.75 256 198 C255.64487163 203.4157076 255.63300051 206.51066735 259 211 C263.12973628 210.43260132 263.12973628 210.43260132 267 209 C267.90205937 220.87711505 265.19865065 230.9074214 263 243 C283.46 243 303.92 243 325 243 C325 247.29 325 251.58 325 256 C303.88 256 282.76 256 261 256 C260.34 262.27 259.68 268.54 259 275 C258.3641232 279.34515814 257.73027931 283.67270664 257 288 C249.01459326 290.26200586 241.31616812 292.41640925 233 293 C229.93037363 280.94075354 229.01559808 268.37426078 228 256 C226.68 256 225.36 256 224 256 C223.34 269.2 222.68 282.4 222 296 C218.2875 296.66 214.575 297.32 210.75 298 C209.5856543 298.20882813 208.42130859 298.41765625 207.22167969 298.6328125 C206.29774414 298.79523438 205.37380859 298.95765625 204.421875 299.125 C203.47924805 299.29257812 202.53662109 299.46015625 201.56542969 299.6328125 C199 300 199 300 195 300 C195 285.48 195 270.96 195 256 C190.71 256 186.42 256 182 256 C182 271.51 182 287.02 182 303 C178.04 303.33 174.08 303.66 170 304 C170 280.24 170 256.48 170 232 C173.96 232 177.92 232 182 232 C182 235.63 182 239.26 182 243 C185.96 243 189.92 243 194 243 C193.97381592 241.54932129 193.94763184 240.09864258 193.9206543 238.60400391 C193.8290132 233.13590393 193.77234271 227.66786927 193.7253418 222.19921875 C193.70045389 219.84851607 193.66653085 217.49788863 193.62280273 215.14746094 C193.36072229 200.68062021 193.8054071 187.63808941 199 174 C200.64331059 172.35668941 202.64798352 172.63075798 204.9152832 172.41162109 C206.48745354 172.25673721 206.48745354 172.25673721 208.09138489 172.09872437 C209.23298569 171.9913797 210.37458649 171.88403503 211.55078125 171.7734375 C212.71626999 171.66150055 213.88175873 171.5495636 215.08256531 171.43423462 C217.55474356 171.19832054 220.02714924 170.96477968 222.49975586 170.73339844 C226.28648909 170.37744503 230.07192677 170.00948455 233.85742188 169.640625 C236.25513881 169.4133279 238.65292329 169.18674202 241.05078125 168.9609375 C242.18630936 168.84954437 243.32183746 168.73815125 244.49177551 168.62338257 C245.54934555 168.52643097 246.60691559 168.42947937 247.6965332 168.32958984 C248.62617386 168.24156097 249.55581451 168.1535321 250.5136261 168.06283569 C252.93819704 168.00156189 254.73104266 168.15377862 257 169 C257.33 169.66 257.66 170.32 258 171 C260.00850548 159.2239411 261.48935965 147.96212487 261 136 C257.61554795 143.81304356 255.22442976 151.78854119 253 160 C245.58256233 161.69155146 238.26861255 162.52132809 230.6875 163.0625 C228.58704073 163.21737847 226.48676975 163.3748369 224.38671875 163.53515625 C223.47108154 163.600979 222.55544434 163.66680176 221.61206055 163.73461914 C219.02391156 163.99757063 216.54719503 164.48164767 214 165 C212.06348981 165.06533435 210.12497139 165.08584303 208.1875 165.0625 C207.21167969 165.05347656 206.23585938 165.04445312 205.23046875 165.03515625 C204.12638672 165.01775391 204.12638672 165.01775391 203 165 C202.83322777 156.95787245 203.3533402 149.01396246 204 141 C203.38125 141.639375 202.7625 142.27875 202.125 142.9375 C195.35215612 149.69131904 188.06448294 155.85749461 180.61328125 161.84375 C177.5279171 164.38952132 174.62174667 167.0954946 171.75390625 169.8828125 C170 171 170 171 167.953125 170.82421875 C164.85611659 169.5172812 163.09888542 167.57863066 161 165 C161.10974233 160.76577505 164.30427221 158.13659981 167.0625 155.25 C167.58835693 154.68273193 168.11421387 154.11546387 168.65600586 153.53100586 C171.64830051 150.33873434 174.72622483 147.30122942 177.96875 144.36328125 C190.08870448 133.21657826 196.37929584 120.9334906 202.73046875 105.91015625 C204 103 204 103 205 102 C205.54043911 97.78457496 204.65770788 94.92659864 203 91.125 C200.99862178 86.3788745 200.29266588 83.12817236 201 78 C202.98 76.02 202.98 76.02 205 74 C205.33 49.91 205.66 25.82 206 1 C138.68 1 71.36 1 2 1 C1.9175 29.1325 1.835 57.265 1.75 86.25 C1.69295898 95.12036133 1.63591797 103.99072266 1.57714844 113.12988281 C1.58362218 121.10777628 1.58362218 121.10777628 1.60601807 129.08563232 C1.61554018 132.62918204 1.59158103 136.17077667 1.54693604 139.71405029 C1.49095907 144.24520679 1.49332127 148.77293465 1.53651094 153.30419302 C1.54261957 154.95991078 1.52886131 156.61586064 1.4921031 158.27118158 C1.21538319 168.1631663 1.21538319 168.1631663 5.80384064 176.58565521 C7.92871637 178.74949146 10.17675504 180.6712684 12.52377701 182.58735275 C13.3409306 183.38352634 14.15808418 184.17969994 15 185 C14.96501785 188.93401443 12.23245725 191.690057 9.9375 194.75 C9.20402344 195.73484375 8.47054688 196.7196875 7.71484375 197.734375 C7.14894531 198.48203125 6.58304687 199.2296875 6 200 C5.01 199.67 4.02 199.34 3 199 C2.67 213.52 2.34 228.04 2 243 C42.26 243 82.52 243 124 243 C124 239.37 124 235.74 124 232 C127.96 232 131.92 232 136 232 C136 257.41 136 282.82 136 309 C132.04 309 128.08 309 124 309 C124 291.84 124 274.68 124 257 C83.74 257 43.48 257 2 257 C2 275.81 2 294.62 2 314 C1.34 314 0.68 314 0 314 C0 295.19 0 276.38 0 257 C-4.62 257 -9.24 257 -14 257 C-14.37125 260.1246875 -14.37125 260.1246875 -14.75 263.3125 C-16.78640444 279.92394752 -19.44397255 296.46229849 -22 313 C-25.66664954 313.02932237 -29.3332684 313.04690637 -33 313.0625 C-34.02996094 313.07087891 -35.05992187 313.07925781 -36.12109375 313.08789062 C-37.63896484 313.09272461 -37.63896484 313.09272461 -39.1875 313.09765625 C-40.57001953 313.10551147 -40.57001953 313.10551147 -41.98046875 313.11352539 C-45.66974531 312.97481957 -49.33662607 312.45792174 -53 312 C-53 301.11 -53 290.22 -53 279 C-55.124375 281.8875 -57.24875 284.775 -59.4375 287.75 C-60.73551846 289.49100369 -62.03366456 291.23191224 -63.33203125 292.97265625 C-65.50140646 295.90321574 -67.58094374 298.84093643 -69.51171875 301.93359375 C-74.43383173 309.51237399 -74.43383173 309.51237399 -78.546875 310.79296875 C-81.81054906 310.88763333 -84.76946804 310.49053631 -88 310 C-89.61630322 309.84955165 -91.23361076 309.70966579 -92.8515625 309.578125 C-96.19576164 309.28933954 -99.53782772 308.99460838 -102.875 308.6328125 C-103.92300781 308.52283936 -103.92300781 308.52283936 -104.9921875 308.41064453 C-107.24410384 307.95007507 -108.99426869 307.10573809 -111 306 C-103.31566647 292.94664837 -95.57804549 279.92711966 -87.76342773 266.95141602 C-87.15571533 265.94135498 -86.54800293 264.93129395 -85.921875 263.890625 C-85.38143555 262.99375977 -84.84099609 262.09689453 -84.28417969 261.17285156 C-83.4773813 259.80773642 -82.70914921 258.41829842 -82 257 C-99.82 257 -117.64 257 -136 257 C-136.33 259.64 -136.66 262.28 -137 265 C-137.37813541 267.69404892 -137.76190606 270.38648004 -138.15625 273.078125 C-138.2634436 273.81198425 -138.37063721 274.54584351 -138.4810791 275.30194092 C-138.70584002 276.8380799 -138.93106467 278.37415109 -139.15673828 279.91015625 C-139.5011023 282.2575138 -139.84238664 284.60530676 -140.18359375 286.953125 C-140.40345747 288.45315262 -140.62350313 289.95315359 -140.84375 291.453125 C-140.94482056 292.15109192 -141.04589111 292.84905884 -141.15002441 293.56817627 C-141.62190467 296.75911188 -142.12993318 299.89119962 -143 303 C-153.7473095 301.97132895 -164.36418137 300.35267789 -175 298.5 C-176.2590918 298.28641846 -177.51818359 298.07283691 -178.81542969 297.8527832 C-180.57741699 297.53893677 -180.57741699 297.53893677 -182.375 297.21875 C-183.96441406 296.9393457 -183.96441406 296.9393457 -185.5859375 296.65429688 C-186.38257813 296.43837891 -187.17921875 296.22246094 -188 296 C-188.33 295.34 -188.66 294.68 -189 294 C-187.84423828 291.77612305 -187.84423828 291.77612305 -186.0703125 289.01171875 C-185.43996094 287.99400391 -184.80960937 286.97628906 -184.16015625 285.92773438 C-182.82492098 283.80186555 -181.4763527 281.68430083 -180.11328125 279.57617188 C-179.48035156 278.54427734 -178.84742188 277.51238281 -178.1953125 276.44921875 C-177.60766113 275.52455811 -177.02000977 274.59989746 -176.41455078 273.6472168 C-174.26422433 268.6240434 -174.26422433 268.6240434 -174 257 C-209.97 257 -245.94 257 -283 257 C-283 260.3 -283 263.6 -283 267 C-287.03881411 265.40895202 -291.00530278 263.71201309 -295 262 C-295 252.1 -295 242.2 -295 232 C-291.04 232 -287.08 232 -283 232 C-283 235.63 -283 239.26 -283 243 C-246.7 243 -210.4 243 -173 243 C-173.57984348 232.81527738 -173.57984348 232.81527738 -175.625 223.375 C-175.97304687 222.22515625 -176.32109375 221.0753125 -176.6796875 219.890625 C-177.6463496 216.95209556 -178.71803107 214.06210005 -179.8203125 211.171875 C-180.13790527 210.3360791 -180.45549805 209.5002832 -180.78271484 208.63916016 C-181.41215444 207.0031256 -182.05505324 205.37218489 -182.71337891 203.74755859 C-185.09119962 197.63779039 -186.13853396 192.41560188 -184 186 C-183.34 186 -182.68 186 -182 186 C-181.85345102 184.56257278 -181.70782018 183.12505197 -181.5625 181.6875 C-181.44068359 180.48673828 -181.44068359 180.48673828 -181.31640625 179.26171875 C-181.21199219 178.18535156 -181.10757813 177.10898438 -181 176 C-180.85747803 175.32138916 -180.71495605 174.64277832 -180.56811523 173.94360352 C-178.83267266 163.58135511 -182.3773107 153.53060929 -184.9375 143.5625 C-185.66227994 140.68287781 -186.38209486 137.80210365 -187.09754944 134.92015076 C-187.54185117 133.13669085 -187.99230958 131.35475044 -188.44969177 129.57460022 C-188.65312698 128.76953537 -188.85656219 127.96447052 -189.06616211 127.13500977 C-189.24682724 126.43094498 -189.42749237 125.72688019 -189.6136322 125.0014801 C-190 123 -190 123 -190 119 C-191.43793392 119.31049726 -192.8753318 119.6234776 -194.3125 119.9375 C-195.51326172 120.19853516 -195.51326172 120.19853516 -196.73828125 120.46484375 C-199.145401 120.99886159 -199.145401 120.99886159 -202 122 C-202 119.8125 -202 119.8125 -201 117 C-197.64451533 114.28401353 -194.08626081 112.36208694 -190 111 C-190.433125 109.91460937 -190.86625 108.82921875 -191.3125 107.7109375 C-191.87552857 106.26583083 -192.43799916 104.82050667 -193 103.375 C-193.28617187 102.66214844 -193.57234375 101.94929688 -193.8671875 101.21484375 C-195.48345147 97.02025392 -196.55432947 93.56661896 -196 89 C-195.046875 87.0234375 -195.046875 87.0234375 -193.75 85.375 C-193.33234375 84.82585937 -192.9146875 84.27671875 -192.484375 83.7109375 C-191 82 -191 82 -188.828125 80.3359375 C-185.69754691 76.33575438 -186.83187894 71.77181585 -187.15625 66.90625 C-187.39301084 61.02668916 -186.26008244 56.93474158 -183 52 C-181 50 -181 50 -177.6875 48.6875 C-174.82008684 47.52631616 -173.73552207 46.73552207 -171.4375 44.4375 C-168.66107825 41.66107825 -166.82013361 40.79586117 -163 40 C-160.375 40.0625 -160.375 40.0625 -158 41 C-156.62926214 42.63604196 -155.29944744 44.30678061 -154 46 C-153.030625 46.639375 -152.06125 47.27875 -151.0625 47.9375 C-145.69880369 51.54978527 -142.43036846 55.6825393 -141 62 C-140.86304343 63.83247892 -140.73916217 65.66595989 -140.625 67.5 C-140.23878624 72.56905563 -139.33371929 75.17602787 -136 79 C-135.01 79.66 -134.02 80.32 -133 81 C-132.8828125 83.828125 -132.8828125 83.828125 -133.125 87.25 C-133.18540345 91.47359514 -133.19565977 93.60143381 -131.3125 97.4375 C-127.64319391 100.99982923 -122.43898554 102.65313803 -117.765625 104.5078125 C-115 106 -115 106 -114.02734375 107.984375 C-113.96312596 112.71814389 -117.21733804 116.16783635 -120.28515625 119.4296875 C-123.48401269 122.60441984 -126.68248903 125.77585595 -129.984375 128.84375 C-133.29038198 132.18124276 -134.3603138 134.36752354 -134.4375 139.125 C-134.12411581 144.13433922 -134.12411581 144.13433922 -133 149 C-124.61587758 153.19206121 -110.0773298 149.12962326 -101 148 C-101.15339844 146.93652344 -101.30679688 145.87304688 -101.46484375 144.77734375 C-102.02048153 140.85543326 -102.51720026 136.93136933 -103 133 C-101.4188708 132.49307308 -99.83498617 131.99473557 -98.25 131.5 C-96.92742187 131.08234375 -96.92742187 131.08234375 -95.578125 130.65625 C-93 130 -93 130 -89 130 C-88.82871582 130.5347998 -88.65743164 131.06959961 -88.48095703 131.62060547 C-87.70192467 134.04081336 -86.91358694 136.45788933 -86.125 138.875 C-85.85558594 139.71675781 -85.58617187 140.55851563 -85.30859375 141.42578125 C-85.04433594 142.23144531 -84.78007812 143.03710938 -84.5078125 143.8671875 C-84.26691895 144.61081543 -84.02602539 145.35444336 -83.77783203 146.12060547 C-83.05943657 148.19586438 -83.05943657 148.19586438 -81 150 C-80.5859375 153.0390625 -80.5859375 153.0390625 -80.375 156.625 C-80.30023438 157.81351563 -80.22546875 159.00203125 -80.1484375 160.2265625 C-80.07496094 161.59941406 -80.07496094 161.59941406 -80 163 C-84.74354436 165.22656164 -88.72250715 166.46148032 -94 167 C-94.33 165.02 -94.66 163.04 -95 161 C-101.24083642 161.54993509 -106.88565691 162.63886906 -112.875 164.4375 C-119.54071155 166.37054252 -126.134475 167.93512253 -133 169 C-132.86287598 169.65701904 -132.72575195 170.31403809 -132.58447266 170.9909668 C-131.21351006 177.9556286 -130.5917615 184.72457067 -130.375 191.8125 C-130.33995361 192.87218994 -130.30490723 193.93187988 -130.26879883 195.02368164 C-130.20294979 197.10518088 -130.14100841 199.18680843 -130.08349609 201.26855469 C-130.01702408 203.44308358 -129.91500778 205.61651866 -129.80078125 207.7890625 C-129.5163958 215.69301666 -130.7271365 223.15798582 -132.01953125 230.94140625 C-132.20890259 232.10192505 -132.39827393 233.26244385 -132.59338379 234.45812988 C-133.05863196 237.30603485 -133.52760515 240.15327329 -134 243 C-126.16715541 243.14772093 -118.33653245 243.23013716 -110.50244808 243.23059464 C-106.86375918 243.23282959 -103.22805286 243.2570316 -99.59008789 243.33251953 C-96.07461277 243.40463969 -92.56330543 243.41763899 -89.04724312 243.39070892 C-87.062247 243.39062645 -85.0775422 243.45079598 -83.0934906 243.51202393 C-79.36466931 243.45363781 -76.50544154 243.28394405 -73 242 C-67.83387932 236.31098884 -65.25956963 229.15804953 -63.625 221.75 C-63.18027344 219.82414062 -63.18027344 219.82414062 -62.7265625 217.859375 C-61.98220801 213.90549202 -61.45290191 209.99619333 -61 206 C-61.61875 205.731875 -62.2375 205.46375 -62.875 205.1875 C-65 204 -65 204 -67 201 C-67.76846551 194.63271432 -66.48193292 191.34908652 -62.8984375 186.078125 C-61.76650859 184.0621168 -61.76650859 184.0621168 -62.5390625 182.109375 C-64.00902633 179.82005701 -64.00902633 179.82005701 -66.5234375 177.69140625 C-70.44905996 173.08463214 -70.11720134 166.84744144 -70.48782349 161.07162476 C-70.72023882 157.45582128 -71.02425566 153.84575209 -71.31640625 150.234375 C-71.37201218 149.52008835 -71.4276181 148.8058017 -71.48490906 148.06987 C-71.94826195 142.23448663 -72.66798734 136.47052434 -73.5625 130.6875 C-74.71803925 123.15266931 -75.63088444 115.62492237 -76.35375977 108.03588867 C-76.71363365 104.03692907 -76.71363365 104.03692907 -77.49365234 100.10668945 C-78.90081541 94.25210404 -79.15657602 88.49096358 -76.58984375 82.96289062 C-74.67764402 79.95087665 -72.64789375 77.09837801 -70.5 74.25 C-69.78457031 73.25484375 -69.06914062 72.2596875 -68.33203125 71.234375 C-66.57897148 68.80346545 -64.80248143 66.39436008 -63 64 C-51.64103699 66.10388295 -39.70709695 70.42497419 -32.96484375 80.23046875 C-29.91745967 85.26627616 -27.25954849 90.4896699 -24.65136719 95.76367188 C-21.89810906 101.15947166 -18.75006155 106.31376397 -15.625 111.5 C-14.5323403 113.34285324 -13.44104272 115.18651529 -12.3515625 117.03125 C-11.56781174 118.35422793 -10.78400118 119.67717045 -10 121 C-8.65686601 120.35330586 -7.32608822 119.68096422 -6 119 C-4.71135796 118.56073433 -4.71135796 118.56073433 -3.39668274 118.1125946 C-0.52431443 115.58069929 -0.60030356 114.9306902 -0.36076355 111.23542786 C-0.32834682 109.16085635 -0.32394977 107.08574446 -0.34057617 105.01098633 C-0.33006131 103.86081119 -0.31954645 102.71063604 -0.30871296 101.52560711 C-0.28026447 97.79413217 -0.2860124 94.06359094 -0.29296875 90.33203125 C-0.28044951 88.03168424 -0.2656948 85.73134826 -0.24865723 83.43103027 C-0.2011444 74.89162803 -0.19697201 66.35202917 -0.1875 57.8125 C-0.125625 38.734375 -0.06375 19.65625 0 0 Z " fill="#59C7CA" transform="translate(326,63)"/>
<path d="M0 0 C68.31 0 136.62 0 207 0 C207 24.09 207 48.18 207 73 C209.97 73 212.94 73 216 73 C216 72.34 216 71.68 216 71 C216.66 71 217.32 71 218 71 C218.433125 71.763125 218.86625 72.52625 219.3125 73.3125 C221.20048159 76.31928549 222.88138542 77.39854927 226 79 C225.67 81.31 225.34 83.62 225 86 C227.64 86 230.28 86 233 86 C233.04125 84.96875 233.0825 83.9375 233.125 82.875 C234.06268738 78.72238446 234.08467415 78.7193333 237.1875 76.5 C239.79945177 74.16198464 239.99536694 73.04875483 240.3359375 69.46484375 C240.18266533 65.29727606 239.55827038 61.88905441 238 58 C235.20995308 55.89779208 232.88635892 54.98175707 229.53125 54.0546875 C227 53 227 53 225.65625 50.3828125 C225.4396875 49.59648438 225.223125 48.81015625 225 48 C223.02 49.32 221.04 50.64 219 52 C218 51 218 51 217.6875 48.125 C218 45 218 45 219.5625 43.125 C222 42 222 42 225.21875 42.0234375 C229.05089736 41.99968452 232.22296794 41.40251848 235.9375 40.5 C248.3799007 37.74235234 248.3799007 37.74235234 254.125 40.5 C261.38948807 46.81694614 266.66332043 55.65328172 269 65 C269.06700487 66.89567946 269.12893756 68.79154095 269.1875 70.6875 C269.58682347 76.85397592 271.76566225 80.65454078 275.30859375 85.625 C278.34939527 89.89476287 279.46281438 92.67763464 279 98 C278.34 98.66 277.68 99.32 277 100 C276.01 100 275.02 100 274 100 C274.30757077 104.06288893 274.62191839 108.12522608 274.9375 112.1875 C275.02451172 113.33798828 275.11152344 114.48847656 275.20117188 115.67382812 C275.28818359 116.78564453 275.37519531 117.89746094 275.46484375 119.04296875 C275.543396 120.06414795 275.62194824 121.08532715 275.70288086 122.13745117 C275.94159683 124.93745064 275.94159683 124.93745064 276.51416016 127.3972168 C278.9681919 140.54416775 276.05878503 153.60035853 273.0625 166.375 C272.68392171 168.05432196 272.30696121 169.73400946 271.93164062 171.4140625 C269.30045642 183.09863073 269.30045642 183.09863073 268 187 C264.37 186.67 260.74 186.34 257 186 C256.855625 187.60875 256.71125 189.2175 256.5625 190.875 C256.125 195.75 256.125 195.75 255 198 C254.64487163 203.4157076 254.63300051 206.51066735 258 211 C262.12973628 210.43260132 262.12973628 210.43260132 266 209 C266.90205937 220.87711505 264.19865065 230.9074214 262 243 C282.46 243 302.92 243 324 243 C324 247.29 324 251.58 324 256 C302.88 256 281.76 256 260 256 C259.34 262.27 258.68 268.54 258 275 C257.3641232 279.34515814 256.73027931 283.67270664 256 288 C248.01459326 290.26200586 240.31616812 292.41640925 232 293 C228.93037363 280.94075354 228.01559808 268.37426078 227 256 C225.68 256 224.36 256 223 256 C222.34 269.2 221.68 282.4 221 296 C217.2875 296.66 213.575 297.32 209.75 298 C208.5856543 298.20882813 207.42130859 298.41765625 206.22167969 298.6328125 C205.29774414 298.79523438 204.37380859 298.95765625 203.421875 299.125 C202.47924805 299.29257812 201.53662109 299.46015625 200.56542969 299.6328125 C198 300 198 300 194 300 C194 285.48 194 270.96 194 256 C189.71 256 185.42 256 181 256 C181 271.51 181 287.02 181 303 C177.04 303.33 173.08 303.66 169 304 C169 280.24 169 256.48 169 232 C172.96 232 176.92 232 181 232 C181 235.63 181 239.26 181 243 C184.96 243 188.92 243 193 243 C192.97381592 241.54932129 192.94763184 240.09864258 192.9206543 238.60400391 C192.8290132 233.13590393 192.77234271 227.66786927 192.7253418 222.19921875 C192.70045389 219.84851607 192.66653085 217.49788863 192.62280273 215.14746094 C192.36072229 200.68062021 192.8054071 187.63808941 198 174 C199.64331059 172.35668941 201.64798352 172.63075798 203.9152832 172.41162109 C204.96339676 172.30836517 206.01151031 172.20510925 207.09138489 172.09872437 C208.23298569 171.9913797 209.37458649 171.88403503 210.55078125 171.7734375 C212.29901436 171.60553207 212.29901436 171.60553207 214.08256531 171.43423462 C216.55474356 171.19832054 219.02714924 170.96477968 221.49975586 170.73339844 C225.28648909 170.37744503 229.07192677 170.00948455 232.85742188 169.640625 C235.25513881 169.4133279 237.65292329 169.18674202 240.05078125 168.9609375 C241.18630936 168.84954437 242.32183746 168.73815125 243.49177551 168.62338257 C244.54934555 168.52643097 245.60691559 168.42947937 246.6965332 168.32958984 C247.62617386 168.24156097 248.55581451 168.1535321 249.5136261 168.06283569 C251.93819704 168.00156189 253.73104266 168.15377862 256 169 C256.33 169.66 256.66 170.32 257 171 C259.00850548 159.2239411 260.48935965 147.96212487 260 136 C256.61554795 143.81304356 254.22442976 151.78854119 252 160 C244.58256233 161.69155146 237.26861255 162.52132809 229.6875 163.0625 C227.58704073 163.21737847 225.48676975 163.3748369 223.38671875 163.53515625 C222.01326294 163.63389038 222.01326294 163.63389038 220.61206055 163.73461914 C218.02391156 163.99757063 215.54719503 164.48164767 213 165 C211.06348981 165.06533435 209.12497139 165.08584303 207.1875 165.0625 C206.21167969 165.05347656 205.23585938 165.04445312 204.23046875 165.03515625 C203.12638672 165.01775391 203.12638672 165.01775391 202 165 C201.83322777 156.95787245 202.3533402 149.01396246 203 141 C202.071875 141.9590625 202.071875 141.9590625 201.125 142.9375 C194.35215612 149.69131904 187.06448294 155.85749461 179.61328125 161.84375 C176.5279171 164.38952132 173.62174667 167.0954946 170.75390625 169.8828125 C169 171 169 171 166.953125 170.82421875 C163.85611659 169.5172812 162.09888542 167.57863066 160 165 C160.10974233 160.76577505 163.30427221 158.13659981 166.0625 155.25 C166.58835693 154.68273193 167.11421387 154.11546387 167.65600586 153.53100586 C170.64830051 150.33873434 173.72622483 147.30122942 176.96875 144.36328125 C189.08870448 133.21657826 195.37929584 120.9334906 201.73046875 105.91015625 C203 103 203 103 204 102 C204.54043911 97.78457496 203.65770788 94.92659864 202 91.125 C199.99862178 86.3788745 199.29266588 83.12817236 200 78 C201.98 76.02 201.98 76.02 204 74 C204.33 49.91 204.66 25.82 205 1 C137.68 1 70.36 1 1 1 C1 57.43 1 113.86 1 172 C0.67 172 0.34 172 0 172 C0 115.24 0 58.48 0 0 Z " fill="#424058" transform="translate(327,63)"/>
<path d="M0 0 C1.37073786 1.63604196 2.70055256 3.30678061 4 5 C5.4540625 5.9590625 5.4540625 5.9590625 6.9375 6.9375 C12.30119631 10.54978527 15.56963154 14.6825393 17 21 C17.13695657 22.83247892 17.26083783 24.66595989 17.375 26.5 C17.76121376 31.56905563 18.66628071 34.17602787 22 38 C23.485 38.99 23.485 38.99 25 40 C25.1171875 42.828125 25.1171875 42.828125 24.875 46.25 C24.81459655 50.47359514 24.80434023 52.60143381 26.6875 56.4375 C30.35680609 59.99982923 35.56101446 61.65313803 40.234375 63.5078125 C43 65 43 65 43.97265625 66.984375 C44.03687404 71.71814389 40.78266196 75.16783635 37.71484375 78.4296875 C34.51598731 81.60441984 31.31751097 84.77585595 28.015625 87.84375 C24.70961802 91.18124276 23.6396862 93.36752354 23.5625 98.125 C23.87588419 103.13433922 23.87588419 103.13433922 25 108 C33.38412242 112.19206121 47.9226702 108.12962326 57 107 C56.84660156 105.93652344 56.69320312 104.87304688 56.53515625 103.77734375 C55.97951847 99.85543326 55.48279974 95.93136933 55 92 C56.5811292 91.49307308 58.16501383 90.99473557 59.75 90.5 C60.63171875 90.2215625 61.5134375 89.943125 62.421875 89.65625 C65 89 65 89 69 89 C69.17128418 89.5347998 69.34256836 90.06959961 69.51904297 90.62060547 C70.29807533 93.04081336 71.08641306 95.45788933 71.875 97.875 C72.14441406 98.71675781 72.41382813 99.55851562 72.69140625 100.42578125 C72.95566406 101.23144531 73.21992188 102.03710938 73.4921875 102.8671875 C73.85352783 103.98262939 73.85352783 103.98262939 74.22216797 105.12060547 C74.94056343 107.19586438 74.94056343 107.19586438 77 109 C77.4140625 112.0390625 77.4140625 112.0390625 77.625 115.625 C77.73714844 117.40777344 77.73714844 117.40777344 77.8515625 119.2265625 C77.90054688 120.14179688 77.94953125 121.05703125 78 122 C73.25645564 124.22656164 69.27749285 125.46148032 64 126 C63.67 124.02 63.34 122.04 63 120 C56.75916358 120.54993509 51.11434309 121.63886906 45.125 123.4375 C38.46515248 125.36884196 31.8709354 126.98600733 25 128 C25.2165625 129.051875 25.2165625 129.051875 25.4375 130.125 C26.56097355 135.86719815 27.2206715 141.15220515 27 147 C26.113125 146.690625 25.22625 146.38125 24.3125 146.0625 C20.63652346 144.99043852 17.04442089 144.69901612 13.23046875 144.43359375 C11.47899536 144.3087561 11.47899536 144.3087561 9.69213867 144.18139648 C8.80373291 144.12153564 7.91532715 144.0616748 7 144 C7.176521 144.75095947 7.35304199 145.50191895 7.53491211 146.27563477 C8.33889552 149.70386656 9.1382363 153.13316491 9.9375 156.5625 C10.35418945 158.33463867 10.35418945 158.33463867 10.77929688 160.14257812 C12.08252722 165.74803876 13.33650944 171.28054339 14 177 C11.5433053 178.00419637 9.08481647 179.00350501 6.625 180 C5.92632812 180.28617188 5.22765625 180.57234375 4.5078125 180.8671875 C-0.7734375 183 -0.7734375 183 -3 183 C-4.67739218 179.00021203 -6.34955546 174.9982892 -8.01708984 170.99438477 C-8.58404701 169.63507511 -9.15238214 168.27633928 -9.72216797 166.91821289 C-10.54505238 164.95611635 -11.36281484 162.9919495 -12.1796875 161.02734375 C-12.67194824 159.84906006 -13.16420898 158.67077637 -13.67138672 157.45678711 C-15.00357084 153.99070937 -16.03602806 150.58189575 -17 147 C-19.64 147.33 -22.28 147.66 -25 148 C-25.33 147.01 -25.66 146.02 -26 145 C-25.34 145 -24.68 145 -24 145 C-23.85345102 143.56257278 -23.70782018 142.12505197 -23.5625 140.6875 C-23.48128906 139.88699219 -23.40007812 139.08648437 -23.31640625 138.26171875 C-23.21199219 137.18535156 -23.10757813 136.10898438 -23 135 C-22.85747803 134.32138916 -22.71495605 133.64277832 -22.56811523 132.94360352 C-20.83267266 122.58135511 -24.3773107 112.53060929 -26.9375 102.5625 C-27.66227994 99.68287781 -28.38209486 96.80210365 -29.09754944 93.92015076 C-29.54185117 92.13669085 -29.99230958 90.35475044 -30.44969177 88.57460022 C-30.65312698 87.76953537 -30.85656219 86.96447052 -31.06616211 86.13500977 C-31.33715981 85.07891258 -31.33715981 85.07891258 -31.6136322 84.0014801 C-32 82 -32 82 -32 78 C-33.43793392 78.31049726 -34.8753318 78.6234776 -36.3125 78.9375 C-37.51326172 79.19853516 -37.51326172 79.19853516 -38.73828125 79.46484375 C-41.145401 79.99886159 -41.145401 79.99886159 -44 81 C-44 78.8125 -44 78.8125 -43 76 C-39.64451533 73.28401353 -36.08626081 71.36208694 -32 70 C-32.433125 68.91460937 -32.86625 67.82921875 -33.3125 66.7109375 C-33.87552857 65.26583083 -34.43799916 63.82050667 -35 62.375 C-35.28617188 61.66214844 -35.57234375 60.94929688 -35.8671875 60.21484375 C-37.48345147 56.02025392 -38.55432947 52.56661896 -38 48 C-37.046875 46.0234375 -37.046875 46.0234375 -35.75 44.375 C-35.12351563 43.55128906 -35.12351563 43.55128906 -34.484375 42.7109375 C-33 41 -33 41 -30.828125 39.3359375 C-27.69754691 35.33575438 -28.83187894 30.77181585 -29.15625 25.90625 C-29.39301084 20.02668916 -28.26008244 15.93474158 -25 11 C-23 9 -23 9 -19.6875 7.6875 C-16.82008684 6.52631616 -15.73552207 5.73552207 -13.4375 3.4375 C-9.55569997 -0.44430003 -5.25531976 -2.07446833 0 0 Z " fill="#E5E5E5" transform="translate(168,104)"/>
<path d="M0 0 C0.33 0 0.66 0 1 0 C0.99317042 0.87445865 0.98634085 1.74891729 0.97930431 2.64987469 C0.81730476 23.96811875 0.72763842 45.28560992 0.71759319 66.60448742 C0.71100716 76.91447533 0.68031416 87.22332012 0.59204102 97.53295898 C0.5151258 106.52332609 0.48428603 115.51249571 0.50781661 124.50318128 C0.51868331 129.26036843 0.50713095 134.0150276 0.44031334 138.77181053 C0.37801706 143.25869946 0.37779707 147.74150116 0.4231987 152.22855186 C0.42919332 153.8663619 0.41337851 155.50443593 0.37295341 157.14175797 C0.20773088 164.27309883 0.10582895 170.25426376 5.03409767 175.81591225 C7.34182483 178.16272384 9.778944 180.27150117 12.30901814 182.37259388 C13.19704215 183.2396379 14.08506617 184.10668192 15 185 C14.56519447 188.99845243 12.30796872 191.58937504 9.9375 194.75 C9.20402344 195.73484375 8.47054687 196.7196875 7.71484375 197.734375 C7.14894531 198.48203125 6.58304687 199.2296875 6 200 C4.35 199.34 2.7 198.68 1 198 C0.67 212.85 0.34 227.7 0 243 C-3.96 243 -7.92 243 -12 243 C-11.69088746 240.08293797 -11.37784575 237.1663891 -11.0625 234.25 C-10.97548828 233.425 -10.88847656 232.6 -10.79882812 231.75 C-10.71181641 230.95078125 -10.62480469 230.1515625 -10.53515625 229.328125 C-10.456604 228.5949707 -10.37805176 227.86181641 -10.29711914 227.10644531 C-10 225 -10 225 -9.45898438 223.17773438 C-8.79459855 220.02543566 -9.00248568 217.04372156 -9.12109375 213.828125 C-9.14470474 213.1457074 -9.16831573 212.46328979 -9.19264221 211.76019287 C-9.2689496 209.58989942 -9.35311406 207.41999286 -9.4375 205.25 C-9.49075373 203.77475824 -9.54349389 202.29949784 -9.59570312 200.82421875 C-9.7245195 197.21591088 -9.86038194 193.6079079 -10 190 C-12.75840026 188.89929819 -13.94323262 188.98169556 -16.81811523 189.90869141 C-17.88747314 190.38483887 -18.95683105 190.86098633 -20.05859375 191.3515625 C-21.25033203 191.87363281 -22.44207031 192.39570313 -23.66992188 192.93359375 C-24.92603481 193.49683068 -26.18189349 194.06063501 -27.4375 194.625 C-34.61818261 197.81154113 -41.80131915 200.98401617 -49.09765625 203.8984375 C-50.11480713 204.30497559 -51.13195801 204.71151367 -52.17993164 205.13037109 C-54.96470285 205.98911536 -57.10814353 206.17823563 -60 206 C-60.33 207.32 -60.66 208.64 -61 210 C-61 208.68 -61 207.36 -61 206 C-61.928125 205.5978125 -61.928125 205.5978125 -62.875 205.1875 C-65 204 -65 204 -67 201 C-67.76846551 194.63271432 -66.48193292 191.34908652 -62.8984375 186.078125 C-61.76650859 184.0621168 -61.76650859 184.0621168 -62.5390625 182.109375 C-64.00902633 179.82005701 -64.00902633 179.82005701 -66.5234375 177.69140625 C-70.44905996 173.08463214 -70.11720134 166.84744144 -70.48782349 161.07162476 C-70.72023882 157.45582128 -71.02425566 153.84575209 -71.31640625 150.234375 C-71.39981514 149.16294502 -71.39981514 149.16294502 -71.48490906 148.06987 C-71.94826195 142.23448663 -72.66798734 136.47052434 -73.5625 130.6875 C-74.71803925 123.15266931 -75.63088444 115.62492237 -76.35375977 108.03588867 C-76.71363365 104.03692907 -76.71363365 104.03692907 -77.49365234 100.10668945 C-78.90081541 94.25210404 -79.15657602 88.49096358 -76.58984375 82.96289062 C-74.67764402 79.95087665 -72.64789375 77.09837801 -70.5 74.25 C-69.78457031 73.25484375 -69.06914062 72.2596875 -68.33203125 71.234375 C-66.57897148 68.80346545 -64.80248143 66.39436008 -63 64 C-51.64103699 66.10388295 -39.70709695 70.42497419 -32.96484375 80.23046875 C-29.91745967 85.26627616 -27.25954849 90.4896699 -24.65136719 95.76367188 C-21.89810906 101.15947166 -18.75006155 106.31376397 -15.625 111.5 C-14.5323403 113.34285324 -13.44104272 115.18651529 -12.3515625 117.03125 C-11.56781174 118.35422793 -10.78400118 119.67717045 -10 121 C-8.65686601 120.35330586 -7.32608822 119.68096422 -6 119 C-5.1409053 118.70715622 -4.28181061 118.41431244 -3.39668274 118.1125946 C-0.52431443 115.58069929 -0.60030356 114.9306902 -0.36076355 111.23542786 C-0.32840681 109.16085542 -0.32391157 107.08574416 -0.34057617 105.01098633 C-0.33009247 103.87913406 -0.31960876 102.7472818 -0.30880737 101.58113098 C-0.27995189 97.83115579 -0.28636167 94.08209803 -0.29296875 90.33203125 C-0.27986018 87.73555844 -0.26455857 85.13909584 -0.24714661 82.54264832 C-0.21127256 76.40154533 -0.19755658 70.26075717 -0.1945222 64.11956185 C-0.18983516 57.12798281 -0.1569234 50.13662613 -0.12162435 43.14514506 C-0.04964637 28.76346463 -0.01316617 14.38184843 0 0 Z " fill="#57C9CC" transform="translate(326,63)"/>
<path d="M0 0 C0.33 0 0.66 0 1 0 C1 6.6 1 13.2 1 20 C10.57 20 20.14 20 30 20 C30.33 16.04 30.66 12.08 31 8 C31.33 8 31.66 8 32 8 C32.495 14.435 32.495 14.435 33 21 C65.34 21 97.68 21 131 21 C131 25.29 131 29.58 131 34 C109.88 34 88.76 34 67 34 C66.34 40.27 65.68 46.54 65 53 C64.3641232 57.34515814 63.73027931 61.67270664 63 66 C55.01459326 68.26200586 47.31616812 70.41640925 39 71 C35.93037363 58.94075354 35.01559808 46.37426078 34 34 C32.68 34 31.36 34 30 34 C29.34 47.2 28.68 60.4 28 74 C22.43125 74.99 22.43125 74.99 16.75 76 C15.00348145 76.31324219 15.00348145 76.31324219 13.22167969 76.6328125 C12.29774414 76.79523438 11.37380859 76.95765625 10.421875 77.125 C9.47924805 77.29257812 8.53662109 77.46015625 7.56542969 77.6328125 C5 78 5 78 1 78 C1 63.48 1 48.96 1 34 C-3.29 34 -7.58 34 -12 34 C-12 49.51 -12 65.02 -12 81 C-17.94 81.495 -17.94 81.495 -24 82 C-24 58.24 -24 34.48 -24 10 C-20.04 10 -16.08 10 -12 10 C-12 13.63 -12 17.26 -12 21 C-8.04 21 -4.08 21 0 21 C0 14.07 0 7.14 0 0 Z " fill="#56C8CA" transform="translate(520,285)"/>
<path d="M0 0 C3.49559085 6.9911817 1.01693862 19.40434732 0 27 C-0.33 27.66 -0.66 28.32 -1 29 C-1.35512837 34.4157076 -1.36699949 37.51066735 2 42 C6.12973628 41.43260132 6.12973628 41.43260132 10 40 C10.88435763 51.64404212 8.22193686 62.61257361 6 74 C-5.88 74 -17.76 74 -30 74 C-30.33 72.35 -30.66 70.7 -31 69 C-31.66 70.32 -32.32 71.64 -33 73 C-42.57 73 -52.14 73 -62 73 C-65.09271321 22.74341041 -65.09271321 22.74341041 -58 5 C-56.35668941 3.35668941 -54.35201648 3.63075798 -52.0847168 3.41162109 C-51.03660324 3.30836517 -49.98848969 3.20510925 -48.90861511 3.09872437 C-47.76701431 2.9913797 -46.62541351 2.88403503 -45.44921875 2.7734375 C-43.70098564 2.60553207 -43.70098564 2.60553207 -41.91743469 2.43423462 C-39.44525644 2.19832054 -36.97285076 1.96477968 -34.50024414 1.73339844 C-30.71351091 1.37744503 -26.92807323 1.00948455 -23.14257812 0.640625 C-20.74486119 0.4133279 -18.34707671 0.18674202 -15.94921875 -0.0390625 C-14.81369064 -0.15045563 -13.67816254 -0.26184875 -12.50822449 -0.37661743 C-11.45065445 -0.47356903 -10.39308441 -0.57052063 -9.3034668 -0.67041016 C-8.37382614 -0.75843903 -7.44418549 -0.8464679 -6.4863739 -0.93716431 C-4.06180296 -0.99843811 -2.26895734 -0.84622138 0 0 Z " fill="#2F2F41" transform="translate(583,232)"/>
<path d="M0 0 C1.16804169 0.00444122 2.33608337 0.00888245 3.53952026 0.01345825 C4.18354797 0.0131662 4.82757568 0.01287415 5.49111938 0.01257324 C7.623112 0.0139683 9.75475655 0.02953729 11.88668823 0.04519653 C13.36356414 0.04892605 14.84044252 0.05177331 16.31732178 0.05377197 C20.20704971 0.0614133 24.09662861 0.08106596 27.98629761 0.10317993 C31.95437606 0.12362768 35.92247855 0.13277139 39.89059448 0.14285278 C47.67842289 0.16431147 55.46612844 0.19845331 63.25387573 0.24050903 C63.34915254 9.65198101 63.34915254 9.65198101 62.73825073 14.30691528 C62.62328247 15.19370972 62.50831421 16.08050415 62.38986206 16.99417114 C62.26248657 17.92108765 62.13511108 18.84800415 62.00387573 19.80300903 C61.87327759 20.78084351 61.74267944 21.75867798 61.60812378 22.7661438 C60.07664492 33.96469406 58.18976776 45.10580231 56.25387573 56.24050903 C52.58722619 56.2698314 48.92060733 56.2874154 45.25387573 56.30300903 C44.22391479 56.31138794 43.19395386 56.31976685 42.13278198 56.32839966 C40.61491089 56.33323364 40.61491089 56.33323364 39.06637573 56.33816528 C38.14469604 56.3434021 37.22301636 56.34863892 36.27340698 56.35403442 C32.58413042 56.2153286 28.91724966 55.69843077 25.25387573 55.24050903 C25.25387573 44.35050903 25.25387573 33.46050903 25.25387573 22.24050903 C22.06731323 26.57175903 22.06731323 26.57175903 18.81637573 30.99050903 C17.51835727 32.73151272 16.22021118 34.47242128 14.92184448 36.21316528 C12.75246928 39.14372477 10.67293199 42.08144547 8.74215698 45.17410278 C3.82004401 52.75288302 3.82004401 52.75288302 -0.29299927 54.03347778 C-3.55667333 54.12814236 -6.51559231 53.73104534 -9.74612427 53.24050903 C-11.36242749 53.09006068 -12.97973503 52.95017482 -14.59768677 52.81863403 C-17.9418859 52.52984857 -21.28395199 52.23511742 -24.62112427 51.87332153 C-25.31979614 51.8000061 -26.01846802 51.72669067 -26.73831177 51.65115356 C-28.9902281 51.1905841 -30.74039295 50.34624712 -32.74612427 49.24050903 C-25.71869349 37.3030359 -18.66118779 25.38343486 -11.55862427 13.49050903 C-10.58783936 11.85770996 -10.58783936 11.85770996 -9.59744263 10.19192505 C-8.99295288 9.18186401 -8.38846313 8.17180298 -7.76565552 7.13113403 C-7.23045288 6.2342688 -6.69525024 5.33740356 -6.14382935 4.4133606 C-3.50220291 0.30672736 -3.50220291 0.30672736 0 0 Z " fill="#302F42" transform="translate(247.74612426757813,319.7594909667969)"/>
<path d="M0 0 C1.37073786 1.63604196 2.70055256 3.30678061 4 5 C5.4540625 5.9590625 5.4540625 5.9590625 6.9375 6.9375 C12.30119631 10.54978527 15.56963154 14.6825393 17 21 C17.13695657 22.83247892 17.26083783 24.66595989 17.375 26.5 C17.76121376 31.56905563 18.66628071 34.17602787 22 38 C23.485 38.99 23.485 38.99 25 40 C25.1171875 42.828125 25.1171875 42.828125 24.875 46.25 C24.81459655 50.47359514 24.80434023 52.60143381 26.6875 56.4375 C30.35680609 59.99982923 35.56101446 61.65313803 40.234375 63.5078125 C43 65 43 65 44.140625 66.7421875 C43.74023019 73.17074867 38.38583292 78.03786343 34 82.25 C33.47921875 82.765625 32.9584375 83.28125 32.421875 83.8125 C25.08617912 91 25.08617912 91 22 91 C21.690625 89.2675 21.690625 89.2675 21.375 87.5 C20.54721999 84.11843061 19.45956937 82.11667629 17.1875 79.5 C12.3243824 73.53760274 9 63.66884457 9 56 C8.113125 55.9175 7.22625 55.835 6.3125 55.75 C1.38100554 55.08439952 -3.22553152 53.35700221 -7.9140625 51.7421875 C-11.23246745 50.94409011 -12.7783178 50.99336159 -16 52 C-17.78185147 53.63418019 -17.78185147 53.63418019 -19.19140625 55.7890625 C-19.74376953 56.56636719 -20.29613281 57.34367187 -20.86523438 58.14453125 C-21.42533203 58.96308594 -21.98542969 59.78164062 -22.5625 60.625 C-23.12646484 61.42035156 -23.69042969 62.21570313 -24.27148438 63.03515625 C-26.76140057 66.58219475 -29.09704375 70.09583483 -31.11328125 73.93359375 C-33.10555662 77.17155683 -34.13600612 78.12475147 -37.625 79.4375 C-38.40101563 79.74558594 -39.17703125 80.05367188 -39.9765625 80.37109375 C-42 81 -42 81 -44 81 C-44 78.8125 -44 78.8125 -43 76 C-39.64451533 73.28401353 -36.08626081 71.36208694 -32 70 C-32.433125 68.91460937 -32.86625 67.82921875 -33.3125 66.7109375 C-33.87552857 65.26583083 -34.43799916 63.82050667 -35 62.375 C-35.28617188 61.66214844 -35.57234375 60.94929688 -35.8671875 60.21484375 C-37.48345147 56.02025392 -38.55432947 52.56661896 -38 48 C-37.046875 46.0234375 -37.046875 46.0234375 -35.75 44.375 C-35.12351563 43.55128906 -35.12351563 43.55128906 -34.484375 42.7109375 C-33 41 -33 41 -30.828125 39.3359375 C-27.69754691 35.33575438 -28.83187894 30.77181585 -29.15625 25.90625 C-29.39301084 20.02668916 -28.26008244 15.93474158 -25 11 C-23 9 -23 9 -19.6875 7.6875 C-16.82008684 6.52631616 -15.73552207 5.73552207 -13.4375 3.4375 C-9.55569997 -0.44430003 -5.25531976 -2.07446833 0 0 Z " fill="#313043" transform="translate(168,104)"/>
<path d="M0 0 C1.625 0.75 1.625 0.75 2.625 1.75 C3.0397174 5.77701516 3.18446359 9.81731364 3.34741211 13.86157227 C3.43401956 15.85729901 3.55133329 17.85162117 3.66992188 19.84570312 C4.18022303 32.46797148 2.02308923 41.56050922 -0.375 54.75 C-20.505 54.75 -40.635 54.75 -61.375 54.75 C-59.395 51.12 -57.415 47.49 -55.375 43.75 C-54.00541799 40.41443843 -54.00541799 40.41443843 -53.1875 37.375 C-52.70023437 35.75658203 -52.70023437 35.75658203 -52.203125 34.10546875 C-51.3035678 30.73847173 -51.3035678 30.73847173 -50.921875 27.17578125 C-50.43271871 23.65306699 -49.89834674 20.96559043 -48.375 17.75 C-45.80004883 16.49072266 -45.80004883 16.49072266 -42.58203125 15.7265625 C-35.40852329 13.81181617 -28.80138621 11.14167771 -22 8.1875 C-20.87722656 7.70603516 -19.75445312 7.22457031 -18.59765625 6.72851562 C-12.8415382 4.26358003 -12.8415382 4.26358003 -7.11376953 1.73388672 C-2.6150786 -0.27527143 -2.6150786 -0.27527143 0 0 Z " fill="#2F2F42" transform="translate(314.375,251.25)"/>
<path d="M0 0 C7.26448807 6.31694614 12.53832043 15.15328172 14.875 24.5 C14.94200487 26.39567946 15.00393756 28.29154095 15.0625 30.1875 C15.46182347 36.35397592 17.64066225 40.15454078 21.18359375 45.125 C24.28147823 49.47491632 25.11998096 52.11041891 24.875 57.5 C22.125 58.625 22.125 58.625 18.875 59.5 C16.671875 58.5546875 16.671875 58.5546875 14.875 57.5 C14.69324219 58.42232422 14.69324219 58.42232422 14.5078125 59.36328125 C14.34023438 60.17152344 14.17265625 60.97976562 14 61.8125 C13.83757813 62.61300781 13.67515625 63.41351563 13.5078125 64.23828125 C12.875 66.5 12.875 66.5 10.875 69.5 C8.34375 69.86328125 8.34375 69.86328125 5.375 69.8125 C3.90546875 69.80669922 3.90546875 69.80669922 2.40625 69.80078125 C-0.125 69.5 -0.125 69.5 -2.125 67.5 C-2.08375 66.283125 -2.0425 65.06625 -2 63.8125 C-2.08774839 61.59784878 -2.08774839 61.59784878 -3.125 59.5 C-6.00012294 57.35464833 -8.98821978 55.75252047 -12.15625 54.07421875 C-15.79220655 52.14620495 -17.84202637 50.92446044 -20.125 47.5 C-20.87507376 44.32842828 -20.9729946 41.65863761 -20.125 38.5 C-18.69921875 37.11328125 -18.69921875 37.11328125 -17 35.875 C-14.31449588 33.60165958 -14.13270736 32.57999706 -13.78515625 28.97265625 C-13.94180556 24.80353221 -14.56616172 21.39047174 -16.125 17.5 C-18.91504692 15.39779208 -21.23864108 14.48175707 -24.59375 13.5546875 C-27.125 12.5 -27.125 12.5 -28.46875 9.8828125 C-28.6853125 9.09648438 -28.901875 8.31015625 -29.125 7.5 C-31.105 8.82 -33.085 10.14 -35.125 11.5 C-36.125 10.5 -36.125 10.5 -36.4375 7.625 C-36.125 4.5 -36.125 4.5 -34.5625 2.625 C-32.125 1.5 -32.125 1.5 -28.90625 1.5234375 C-25.07410264 1.49968452 -21.90203206 0.90251848 -18.1875 0 C-5.7450993 -2.75764766 -5.7450993 -2.75764766 0 0 Z " fill="#312F42" transform="translate(581.125,103.5)"/>
<path d="M0 0 C2.0201352 -0.08202053 4.04126679 -0.13964668 6.0625 -0.1875 C7.18785156 -0.22230469 8.31320313 -0.25710937 9.47265625 -0.29296875 C13.6360663 0.05282943 16.26476904 1.18710447 20 3 C20.33626722 7.62367428 20.63445473 12.24728166 20.88427734 16.87646484 C20.9828386 18.68508463 21.09364569 20.49303028 21.20703125 22.30078125 C21.61314385 34.37887087 19.04056722 46.13920305 17 58 C4.46 58 -8.08 58 -21 58 C-21.66 53.71 -22.32 49.42 -23 45 C-24.44964918 38.55558799 -26.46397155 32.33687629 -28.81640625 26.171875 C-29.13456299 25.3360791 -29.45271973 24.5002832 -29.78051758 23.63916016 C-30.41130964 22.00332619 -31.05504179 20.37240386 -31.71362305 18.74755859 C-33.72038464 13.58981485 -34.51177362 9.5442142 -34 4 C-33.34 3.34 -32.68 2.68 -32 2 C-32 2.66 -32 3.32 -32 4 C-29.36 3.67 -26.72 3.34 -24 3 C-22.32260782 6.99978797 -20.65044454 11.0017108 -18.98291016 15.00561523 C-18.41595299 16.36492489 -17.84761786 17.72366072 -17.27783203 19.08178711 C-16.45494762 21.04388365 -15.63718516 23.0080505 -14.8203125 24.97265625 C-14.32805176 26.15093994 -13.83579102 27.32922363 -13.32861328 28.54321289 C-11.99642916 32.00929063 -10.96397194 35.41810425 -10 39 C-7.51956646 38.02394493 -5.04064915 37.04432337 -2.5625 36.0625 C-1.85544922 35.78470703 -1.14839844 35.50691406 -0.41992188 35.22070312 C3.04673881 34.03777966 3.04673881 34.03777966 6 32 C5.74422912 30.3842859 5.40758206 28.78128296 5.0390625 27.1875 C4.81476563 26.19363281 4.59046875 25.19976562 4.359375 24.17578125 C4.11703125 23.12777344 3.8746875 22.07976562 3.625 21 C2.00929539 13.99565417 0.64188663 7.16524609 0 0 Z " fill="#323143" transform="translate(175,248)"/>
<path d="M0 0 C11.88 0 23.76 0 36 0 C36 5.59580732 35.78195327 10.61960937 34.94140625 16.078125 C34.77849342 17.17891388 34.77849342 17.17891388 34.61228943 18.30194092 C34.38380645 19.8384186 34.15257943 21.37449057 33.91870117 22.91015625 C33.56144342 25.25694057 33.2126265 27.60486195 32.86523438 29.953125 C32.6411119 31.45319783 32.41651908 32.95320047 32.19140625 34.453125 C32.03509483 35.50007538 32.03509483 35.50007538 31.87562561 36.56817627 C31.38844531 39.75627043 30.86570281 42.89082067 30 46 C19.2526905 44.97132895 8.63581863 43.35267789 -2 41.5 C-3.2590918 41.28641846 -4.51818359 41.07283691 -5.81542969 40.8527832 C-6.99008789 40.64355225 -8.16474609 40.43432129 -9.375 40.21875 C-10.43460938 40.03248047 -11.49421875 39.84621094 -12.5859375 39.65429688 C-13.38257813 39.43837891 -14.17921875 39.22246094 -15 39 C-15.33 38.34 -15.66 37.68 -16 37 C-14.75244141 34.56079102 -14.75244141 34.56079102 -12.8515625 31.50390625 C-12.17609375 30.38693359 -11.500625 29.26996094 -10.8046875 28.11914062 C-9.72472255 26.34995548 -8.63916068 24.58511316 -7.5390625 22.82836914 C-6.47882209 21.1274862 -5.4462626 19.40945033 -4.4140625 17.69140625 C-3.7845166 16.67248291 -3.1549707 15.65355957 -2.50634766 14.60375977 C-0.34898194 9.94982707 -0.34898194 9.94982707 0 0 Z " fill="#302F42" transform="translate(153,320)"/>
<path d="M0 0 C1.12600501 3.68719386 2.25062251 7.37480954 3.375 11.0625 C3.69210937 12.10083984 4.00921875 13.13917969 4.3359375 14.20898438 C4.95262683 16.23249624 5.56695199 18.25673038 6.17871094 20.28173828 C6.67127038 21.91198706 7.16794676 23.54101282 7.67285156 25.16748047 C8.62995455 28.32828354 9 30.63591971 9 34 C6.91891315 34.67364661 4.8350329 35.33866798 2.75 36 C1.58984375 36.37125 0.4296875 36.7425 -0.765625 37.125 C-4 38 -4 38 -8 38 C-8.38671875 39.2684375 -8.38671875 39.2684375 -8.78125 40.5625 C-14.38283955 56.36185513 -25.17594878 72.19956053 -38 83 C-39.485 83.495 -39.485 83.495 -41 84 C-41.27364565 79.16240424 -41.47223893 74.32937451 -41.60424805 69.48583984 C-41.65929641 67.8421378 -41.73417216 66.19896798 -41.82983398 64.55712891 C-42.60412389 50.91803289 -42.60412389 50.91803289 -38.67822266 46.22387695 C-35.87130974 44.18713344 -33.07396263 42.59515574 -30 41 C-28.30916836 39.76149949 -26.63778941 38.49533828 -25 37.1875 C-24.29875 36.64480469 -23.5975 36.10210937 -22.875 35.54296875 C-19.67880123 32.91276351 -17.68240941 30.71695964 -15.9375 26.9375 C-14.77100702 24.42181031 -13.98948974 22.98948974 -12 21 C-12.20159034 18.5809159 -12.53077974 16.37192994 -13 14 C-13.17144531 13.11441406 -13.34289062 12.22882813 -13.51953125 11.31640625 C-14.00089949 8.87493426 -14.49501381 6.43668096 -15 4 C-13.72942818 3.52014033 -12.45853152 3.0411407 -11.1875 2.5625 C-10.47980469 2.29566406 -9.77210938 2.02882812 -9.04296875 1.75390625 C-5.72135992 0.52815003 -3.62883651 0 0 0 Z " fill="#C4E6E7" transform="translate(369,128)"/>
<path d="M0 0 C1.36451081 0.95702038 2.70810219 1.9470148 4 3 C3.25 7.75 3.25 7.75 1 10 C-1.1640625 10.1953125 -1.1640625 10.1953125 -3.625 10.125 C-4.44226563 10.10695313 -5.25953125 10.08890625 -6.1015625 10.0703125 C-6.72804688 10.04710938 -7.35453125 10.02390625 -8 10 C-10.53715066 17.61145197 -10.30816086 24.15103487 -9 32 C-10.36125 31.2265625 -10.36125 31.2265625 -11.75 30.4375 C-14.75210529 28.81522221 -14.75210529 28.81522221 -17.25 29.125 C-19.35659986 29.99741594 -19.35659986 29.99741594 -21 33 C-21.25991509 36.06785026 -21.31424471 39.10951388 -21.36328125 42.1875 C-22 45 -22 45 -24.35546875 46.9375 C-27 48 -27 48 -30 47 C-31.33745689 45.30037462 -32.59904556 43.54026414 -33.8125 41.75 C-36.16504559 38.36930485 -38.16833517 35.59736633 -41.5625 33.25 C-42.366875 32.5075 -43.17125 31.765 -44 31 C-43.94087589 27.51167779 -43.55735315 25.1147063 -42 22 C-41.92260162 20.27143612 -41.8625979 18.54207041 -41.8125 16.8125 C-41.37614318 11.83021689 -40.40665913 9.03624244 -36.875 5.49609375 C-25.765482 -3.36837582 -13.18359259 -5.62037368 0 0 Z " fill="#323143" transform="translate(297,78)"/>
<path d="M0 0 C9.24 0 18.48 0 28 0 C28.095595 13.38330007 27.7958092 26.64177415 27 40 C23.25097253 40.67221475 19.50063279 41.33680567 15.75 42 C14.68652344 42.19078125 13.62304688 42.3815625 12.52734375 42.578125 C11.50253906 42.75859375 10.47773437 42.9390625 9.421875 43.125 C8.00793457 43.37636719 8.00793457 43.37636719 6.56542969 43.6328125 C4 44 4 44 0 44 C0 29.48 0 14.96 0 0 Z " fill="#303043" transform="translate(521,319)"/>
<path d="M0 0 C10.56 0 21.12 0 32 0 C30.91947231 10.72809639 29.79454742 21.36635198 28 32 C20.01459326 34.26200586 12.31616812 36.41640925 4 37 C2.53489356 31.24422468 1.59533625 25.51253955 0.875 19.625 C0.78750488 18.94252197 0.70000977 18.26004395 0.60986328 17.55688477 C-0.08542406 11.59657947 0 6.11851284 0 0 Z " fill="#313144" transform="translate(555,319)"/>
<path d="M0 0 C4.51846921 3.04505534 8.13526194 6.71828583 9.875 11.9375 C10.43884129 17.63012838 10.18219906 22.08694138 6.875 26.9375 C2.93335755 30.70776669 -0.59269104 33.88497496 -6.2265625 33.96875 C-12.86908046 33.52443442 -16.92776269 31.37227648 -21.4375 26.375 C-24.76170795 21.5733663 -24.75207429 16.59000066 -24.125 10.9375 C-21.73260989 6.06070478 -18.40931045 3.12794396 -14.125 -0.0625 C-9.19058151 -1.70730616 -4.86089501 -1.6527043 0 0 Z " fill="#E6E6E6" transform="translate(578.125,62.0625)"/>
<path d="M0 0 C4.83240075 2.3299075 8.65952713 5.76052391 10.75 10.8125 C11.47035804 17.11563286 11.63364894 21.60813383 8 27 C3.79954855 31.15183511 0.47466169 34.1257217 -5.5625 34.4375 C-11.6637246 34.37560352 -15.56055355 32.0554437 -20 28 C-23.40949593 23.55732348 -23.5139158 19.05992924 -23.3515625 13.62109375 C-22.67448755 8.57312384 -20.06880325 5.94156477 -16.375 2.6875 C-11.25527798 -0.95019722 -6.13002394 -0.57769859 0 0 Z " fill="#57CBCD" transform="translate(427,14)"/>
<path d="M0 0 C4.05830733 3.82273276 6.73501517 7.70346481 7.375 13.25 C6.76735099 19.32649012 4.55898313 23.95381827 -0.125 27.9375 C-5.30918505 31.65658927 -9.71857923 31.64857669 -16 31 C-19.4375 29.25 -19.4375 29.25 -22 27 C-22.7425 26.360625 -23.485 25.72125 -24.25 25.0625 C-27.6312537 21.07745099 -28.47026188 17.28650365 -28.3125 12.05078125 C-27.54902119 7.04045153 -24.71835482 3.41866962 -21 0.125 C-14.29401594 -4.62507204 -7.10699546 -3.94833081 0 0 Z " fill="#E6E6E6" transform="translate(292,37)"/>
<path d="M0 0 C5.36168385 4.27793924 7.53289456 8.96119312 8.3984375 15.77734375 C8.18989387 20.65916046 5.98129377 24.16162105 2.8984375 27.83984375 C-1.03949111 31.33028048 -4.63208123 32.6435075 -9.796875 33 C-14.5553979 32.66932299 -18.29139432 30.60509461 -21.67578125 27.3046875 C-25.95820102 22.3105762 -26.45450111 19.08513277 -26.37890625 12.66796875 C-25.95370192 8.33208238 -24.7800056 6.29362564 -22.1015625 2.83984375 C-15.608165 -2.30076261 -7.6403542 -4.21781635 0 0 Z " fill="#E6E6E6" transform="translate(176.1015625,63.16015625)"/>
<path d="M0 0 C4.96276562 2.92119027 6.99908861 9.10761311 8.59765625 14.36328125 C9.90985422 19.84094487 10.9929522 25.47057671 9.78515625 31.05078125 C7.91151038 33.24484772 6.49150289 33.8667546 3.78515625 35.05078125 C4.11515625 39.01078125 4.44515625 42.97078125 4.78515625 47.05078125 C-2.61831181 45.24295765 -9.93961889 43.32026511 -17.21484375 41.05078125 C-17.19164062 40.42429688 -17.1684375 39.7978125 -17.14453125 39.15234375 C-17.11746094 37.92644531 -17.11746094 37.92644531 -17.08984375 36.67578125 C-17.06664062 35.86367187 -17.0434375 35.0515625 -17.01953125 34.21484375 C-17.00114324 31.83735882 -17.00114324 31.83735882 -19.21484375 30.05078125 C-19.62743821 22.65158727 -17.69206702 16.14524762 -12.91650391 10.52197266 C-11.3831699 8.80830535 -9.81259687 7.14199055 -8.21484375 5.48828125 C-7.69237061 4.93865723 -7.16989746 4.3890332 -6.6315918 3.82275391 C-2.83475149 0.0649943 -2.83475149 0.0649943 0 0 Z " fill="#9E6069" transform="translate(170.21484375,112.94921875)"/>
<path d="M0 0 C3.96 0 7.92 0 12 0 C12 25.41 12 50.82 12 77 C8.04 77 4.08 77 0 77 C0 59.51 0 42.02 0 24 C2.31 24 4.62 24 7 24 C7 19.71 7 15.42 7 11 C4.69 11 2.38 11 0 11 C0 7.37 0 3.74 0 0 Z " fill="#48475F" transform="translate(450,295)"/>
<path d="M0 0 C3.63 0 7.26 0 11 0 C14.33358008 6.45881141 16.28338114 11.70146723 15 19 C12.75125672 25.56441655 9.72291401 30.10354791 4 34 C2.94232422 34.33644531 2.94232422 34.33644531 1.86328125 34.6796875 C-0.38072543 35.94524795 -0.38072543 35.94524795 -0.609375 39.2578125 C-0.67898438 41.17207031 -0.67898438 41.17207031 -0.75 43.125 C-0.80671875 44.40632813 -0.8634375 45.68765625 -0.921875 47.0078125 C-0.94765625 47.99523437 -0.9734375 48.98265625 -1 50 C-4.47598164 49.42022443 -7.29104698 48.53478895 -10.42578125 46.93359375 C-11.22177734 46.53076172 -12.01777344 46.12792969 -12.83789062 45.71289062 C-13.65451172 45.29201172 -14.47113281 44.87113281 -15.3125 44.4375 C-16.14845703 44.01275391 -16.98441406 43.58800781 -17.84570312 43.15039062 C-19.89996426 42.1056521 -21.95120292 41.05540238 -24 40 C-23.01 38.68 -22.02 37.36 -21 36 C-20.67 36.66 -20.34 37.32 -20 38 C-17.69 37.34 -15.38 36.68 -13 36 C-13.04640625 35.19175781 -13.0928125 34.38351563 -13.140625 33.55078125 C-13.43910806 24.7135506 -13.43910806 24.7135506 -11 20.75 C-10.34 20.1725 -9.68 19.595 -9 19 C-6.23723823 19.52268466 -3.6739124 20.10869587 -1 21 C-1.2475 20.01 -1.2475 20.01 -1.5 19 C-2.12605686 15.24365885 -2.12696208 11.80886246 -2 8 C-1.67 7.67 -1.34 7.34 -1 7 C-0.63239269 4.67182036 -0.29758419 2.3381615 0 0 Z " fill="#FBB4B4" transform="translate(288,87)"/>
<path d="M0 0 C3.96 0 7.92 0 12 0 C12 3.63 12 7.26 12 11 C10.68 11 9.36 11 8 11 C8 15.29 8 19.58 8 24 C9.32 24 10.64 24 12 24 C12 39.51 12 55.02 12 71 C6.06 71.495 6.06 71.495 0 72 C0 48.24 0 24.48 0 0 Z " fill="#47455D" transform="translate(496,295)"/>
<path d="M0 0 C0.33 0.66 0.66 1.32 1 2 C3.64 1.67 6.28 1.34 9 1 C10.67739218 4.99978797 12.34955546 9.0017108 14.01708984 13.00561523 C14.58404701 14.36492489 15.15238214 15.72366072 15.72216797 17.08178711 C16.54505238 19.04388365 17.36281484 21.0080505 18.1796875 22.97265625 C18.67194824 24.15093994 19.16420898 25.32922363 19.67138672 26.54321289 C21.00357084 30.00929063 22.03602806 33.41810425 23 37 C24.32 37 25.64 37 27 37 C28.58486877 40.16973755 28.39370674 43.57539745 28.62109375 47.078125 C28.98027296 50.57948226 28.98027296 50.57948226 31 56 C24.73 56 18.46 56 12 56 C11.7525 54.14375 11.505 52.2875 11.25 50.375 C9.83507513 41.31948081 7.44621074 32.72218161 4.18359375 24.171875 C3.86543701 23.3360791 3.54728027 22.5002832 3.21948242 21.63916016 C2.58869036 20.00332619 1.94495821 18.37240386 1.28637695 16.74755859 C-0.72596116 11.57548216 -1.41512848 7.5553959 -1 2 C-0.67 1.34 -0.34 0.68 0 0 Z " fill="#323143" transform="translate(142,250)"/>
<path d="M0 0 C0.17128418 0.5347998 0.34256836 1.06959961 0.51904297 1.62060547 C1.29807533 4.04081336 2.08641306 6.45788933 2.875 8.875 C3.14441406 9.71675781 3.41382813 10.55851563 3.69140625 11.42578125 C3.95566406 12.23144531 4.21992188 13.03710938 4.4921875 13.8671875 C4.85352783 14.98262939 4.85352783 14.98262939 5.22216797 16.12060547 C5.94056343 18.19586438 5.94056343 18.19586438 8 20 C8.4140625 23.0390625 8.4140625 23.0390625 8.625 26.625 C8.69976562 27.81351563 8.77453125 29.00203125 8.8515625 30.2265625 C8.92503906 31.59941406 8.92503906 31.59941406 9 33 C4.25645564 35.22656164 0.27749285 36.46148032 -5 37 C-5.33 35.02 -5.66 33.04 -6 31 C-8.97 31 -11.94 31 -15 31 C-16.07396066 26.70415737 -16.07329796 23.39787789 -16 19 C-14.68 18.67 -13.36 18.34 -12 18 C-12.144375 17.01 -12.28875 16.02 -12.4375 15 C-13.00925179 11.00590535 -13.50819834 7.00467063 -14 3 C-12.4188708 2.49307308 -10.83498617 1.99473557 -9.25 1.5 C-7.92742187 1.08234375 -7.92742187 1.08234375 -6.578125 0.65625 C-4 0 -4 0 0 0 Z " fill="#59CACC" transform="translate(237,193)"/>
<path d="M0 0 C2 3.75 2 3.75 2 6 C2.61488281 6.19335938 3.22976563 6.38671875 3.86328125 6.5859375 C5.07564453 6.97652344 5.07564453 6.97652344 6.3125 7.375 C7.11300781 7.63023438 7.91351562 7.88546875 8.73828125 8.1484375 C11 9 11 9 14 11 C15.53054393 16.00793973 16.16677542 20.79230298 16 26 C14.52477719 28.7285458 13.06524295 30.30885364 10.69921875 32.2890625 C8.57317367 34.42976996 8.34694914 36.05344645 8 39 C5.36 39 2.72 39 0 39 C0.33 36.69 0.66 34.38 1 32 C0.236875 31.7525 -0.52625 31.505 -1.3125 31.25 C-4.26080945 29.87869328 -5.35834532 28.7648921 -7 26 C-7 25.34 -7 24.68 -7 24 C-7.66 23.67 -8.32 23.34 -9 23 C-9.5333615 15.88851337 -9.68924553 10.46535499 -5.37890625 4.55859375 C-3.7557801 2.72395541 -2.11117666 1.25106765 0 0 Z " fill="#FBB3B4" transform="translate(552,110)"/>
<path d="M0 0 C2.7683967 2.7683967 2.29966769 4.3660866 2.3125 8.25 C2.2916328 18.59100059 0.57625488 28.80325192 -1 39 C-1.60192169 38.0126889 -1.60192169 38.0126889 -2.21600342 37.00543213 C-3.79330205 34.80489405 -3.79330205 34.80489405 -6.09796143 34.6708374 C-6.90513611 34.75077942 -7.71231079 34.83072144 -8.54394531 34.91308594 C-9.92117767 35.03366364 -9.92117767 35.03366364 -11.32623291 35.15667725 C-12.3168573 35.2648175 -13.30748169 35.37295776 -14.328125 35.484375 C-15.86167633 35.62604095 -15.86167633 35.62604095 -17.4262085 35.77056885 C-20.70305141 36.07725182 -23.9761728 36.41276938 -27.25 36.75 C-30.50989336 37.06679365 -33.77029293 37.37770413 -37.03094482 37.68658447 C-39.06053632 37.88094308 -41.08959242 38.08100117 -43.11798096 38.28753662 C-48.10949649 38.78624531 -52.98360109 39.11286463 -58 39 C-58 35.04 -58 31.08 -58 27 C-57.67 28.32 -57.34 29.64 -57 31 C-56.06039429 30.87939209 -56.06039429 30.87939209 -55.10180664 30.75634766 C-39.09341985 28.72063262 -23.09573264 27.15309622 -7 26 C-6.89816406 25.04996094 -6.79632812 24.09992188 -6.69140625 23.12109375 C-5.99771465 18.26525253 -4.46122033 13.7114379 -2.9375 9.0625 C-2.65583984 8.18787109 -2.37417969 7.31324219 -2.08398438 6.41210938 C-1.39434445 4.27305673 -0.69959171 2.13581421 0 0 Z " fill="#F3AFB0" transform="translate(586,197)"/>
<path d="M0 0 C9 26.00409836 9 26.00409836 9 34 C4.38 34.99 -0.24 35.98 -5 37 C-6.00180802 34.00059281 -7.00168101 31.00056865 -8 28 C-8.400979 26.79851318 -8.400979 26.79851318 -8.81005859 25.57275391 C-9.6121306 23.15570574 -10.40084952 20.73460653 -11.1875 18.3125 C-11.59645508 17.08950195 -11.59645508 17.08950195 -12.01367188 15.84179688 C-13.44019208 11.41922672 -14.34244496 7.71052072 -14 3 C-12.4188708 2.49307308 -10.83498617 1.99473557 -9.25 1.5 C-7.92742187 1.08234375 -7.92742187 1.08234375 -6.578125 0.65625 C-4 0 -4 0 0 0 Z " fill="#58CBCD" transform="translate(474,222)"/>
<path d="M0 0 C2.9719385 1.12451727 5.33440687 2.22293791 8 4 C8.36076355 6.02481079 8.36076355 6.02481079 8.34057617 8.54150391 C8.34034958 9.48232819 8.34012299 10.42315247 8.33988953 11.39248657 C8.32440567 12.41023163 8.30892181 13.42797668 8.29296875 14.4765625 C8.28872391 15.51694672 8.28447906 16.55733093 8.28010559 17.62924194 C8.26327482 20.96142147 8.22561422 24.29300241 8.1875 27.625 C8.17245887 29.88019962 8.15876947 32.13540869 8.14648438 34.390625 C8.11335684 39.92731497 8.0615441 45.46355591 8 51 C4.04 51 0.08 51 -4 51 C-3.69088746 48.08293797 -3.37784575 45.1663891 -3.0625 42.25 C-2.97548828 41.425 -2.88847656 40.6 -2.79882812 39.75 C-2.71181641 38.95078125 -2.62480469 38.1515625 -2.53515625 37.328125 C-2.456604 36.5949707 -2.37805176 35.86181641 -2.29711914 35.10644531 C-2 33 -2 33 -1.48632812 31.15039062 C-0.81529413 28.18328851 -0.77690677 25.3049635 -0.68359375 22.265625 C-0.62075195 20.32236328 -0.62075195 20.32236328 -0.55664062 18.33984375 C-0.51683329 16.97656524 -0.47712094 15.61328394 -0.4375 14.25 C-0.39427726 12.87108125 -0.35066179 11.49217474 -0.30664062 10.11328125 C-0.20056042 6.7422881 -0.0985015 3.37122174 0 0 Z " fill="#FCFCFD" transform="translate(318,255)"/>
<path d="M0 0 C0.66 0 1.32 0 2 0 C2.433125 0.763125 2.86625 1.52625 3.3125 2.3125 C5.20048159 5.31928549 6.88138542 6.39854927 10 8 C9.66427758 11.45314487 8.84709512 14.04920854 7 17 C2.5792615 20.21359957 -2.09401343 22.61283967 -7 25 C-8.20849609 25.60521484 -8.20849609 25.60521484 -9.44140625 26.22265625 C-9.95574219 26.47917969 -10.47007812 26.73570312 -11 27 C-17.11005693 13.90702087 -17.11005693 13.90702087 -16 7 C-14.10549256 4.26348925 -12.83803443 3.27179495 -9.6875 2.25 C-6.44556467 1.94842462 -3.25390546 1.93619793 0 2 C0 1.34 0 0.68 0 0 Z " fill="#313043" transform="translate(543,134)"/>
<path d="M0 0 C3 1 3 1 4.875 3.875 C7.12235328 7.1799313 8.33279246 8.49977873 12 10 C15.4787562 10.36195151 18.8017988 10.5991006 22 9 C22.45647158 14.70589472 21.69917584 17.60098008 18 22 C14.53676621 24.88602816 11.51239915 25.53457148 6.9921875 25.35546875 C2.75490147 24.59940399 -0.05037113 22.08061217 -2.8125 18.9375 C-5.23959201 14.97750777 -5.38595477 11.55426632 -5 7 C-3.50254139 4.39152371 -2.12971098 2.12971098 0 0 Z " fill="#45435B" transform="translate(336,264)"/>
<path d="M0 0 C15.1509009 8.7972973 15.1509009 8.7972973 18 14 C18.42520654 16.85495822 18.28796272 19.07237902 18 22 C16 24 16 24 12.25 24.375 C7.81644805 24.23870636 5.39304003 22.94063469 2 20 C0.62401652 18.24483925 -0.62832057 16.46814151 -1.82421875 14.5859375 C-3.08410717 12.69978909 -3.08410717 12.69978909 -6 11 C-5.39305845 7.84669446 -4.3583335 5.81111133 -2.4375 3.25 C-1.98246094 2.63640625 -1.52742188 2.0228125 -1.05859375 1.390625 C-0.70925781 0.93171875 -0.35992187 0.4728125 0 0 Z " fill="#FCB6B6" transform="translate(340,251)"/>
<path d="M0 0 C3.63 0 7.26 0 11 0 C11 3.63 11 7.26 11 11 C10.01 11 9.02 11 8 11 C8 15.62 8 20.24 8 25 C8.99 25 9.98 25 11 25 C11 27.97 11 30.94 11 34 C9.5410574 33.52269162 8.08286504 33.04308958 6.625 32.5625 C5.81289063 32.29566406 5.00078125 32.02882813 4.1640625 31.75390625 C2 31 2 31 0 30 C0 20.1 0 10.2 0 0 Z " fill="#414059" transform="translate(31,295)"/>
<path d="M0 0 C0.433125 1.175625 0.86625 2.35125 1.3125 3.5625 C2.33125879 6.31799997 3.4254876 8.8982516 4.6875 11.5625 C6.12053798 15.31569472 6.31241763 18.01667517 6 22 C5.67 22.66 5.34 23.32 5 24 C1.04 24 -2.92 24 -7 24 C-10.41519543 18.80296348 -10.46273983 13.8628863 -10.69140625 7.73046875 C-10.79324219 6.82941406 -10.89507812 5.92835938 -11 5 C-11.66 4.67 -12.32 4.34 -13 4 C-11.39850114 3.32694982 -9.79368971 2.66177773 -8.1875 2 C-7.29417969 1.62875 -6.40085938 1.2575 -5.48046875 0.875 C-3 0 -3 0 0 0 Z " fill="#9E616A" transform="translate(180,282)"/>
<path d="M0 0 C3.63 0.33 7.26 0.66 11 1 C10.67 11.23 10.34 21.46 10 32 C9.67 32 9.34 32 9 32 C8.67 29.36 8.34 26.72 8 24 C7.01 24.66 6.02 25.32 5 26 C2.5 25.9375 2.5 25.9375 0 25 C-2.87928676 21.72357023 -3.45410619 18.7271846 -3.3046875 14.40234375 C-2.68283013 9.49923758 -1.33037082 4.75132435 0 0 Z " fill="#F3B0B1" transform="translate(584,249)"/>
<path d="M0 0 C2.7683967 2.7683967 2.29966769 4.3660866 2.3125 8.25 C2.2916328 18.59100059 0.57625488 28.80325192 -1 39 C-7.21975806 32.90120968 -7.21975806 32.90120968 -8 29 C-7.36571487 19.19927172 -3.03592613 9.27342629 0 0 Z " fill="#F5F4F6" transform="translate(586,197)"/>
<path d="M0 0 C3 3 6 6 9 9 C8.071875 9.70125 7.14375 10.4025 6.1875 11.125 C3.06974764 13.69513777 1.74420707 16.35302159 0 20 C-2.1875 21.875 -2.1875 21.875 -4 23 C-6.43228115 17.92393499 -8.18056038 13.68765202 -8 8 C-6.38654046 6.05612455 -4.71806676 4.69137032 -2.6640625 3.2265625 C-0.85409319 2.0870485 -0.85409319 2.0870485 0 0 Z " fill="#F9B6B6" transform="translate(486,226)"/>
<path d="M0 0 C0.84820312 0.32742187 1.69640625 0.65484375 2.5703125 0.9921875 C6.20190011 2.05932828 9.10336301 2.20197218 12.875 2.125 C14.02742187 2.10695312 15.17984375 2.08890625 16.3671875 2.0703125 C17.23601562 2.04710937 18.10484375 2.02390625 19 2 C20.13764351 6.26616316 21 9.56486311 21 14 C13.59684417 12.20645194 6.27235389 10.26858827 -1 8 C-0.67 5.36 -0.34 2.72 0 0 Z " fill="#915961" transform="translate(154,146)"/>
<path d="M0 0 C0.66 0 1.32 0 2 0 C2.67413211 1.91405367 3.3390332 3.83136026 4 5.75 C4.37125 6.81734375 4.7425 7.8846875 5.125 8.984375 C6 12 6 12 6 16 C4.875 17.8125 4.875 17.8125 3 19 C-1.79609836 18.78199553 -5.70246474 16.97686622 -10 15 C-9.4225 14.34 -8.845 13.68 -8.25 13 C-6.01418532 10.01891376 -4.48592625 7.13280755 -2.9296875 3.76953125 C-2 2 -2 2 0 0 Z " fill="#F4E0E0" transform="translate(357,149)"/>
<path d="M0 0 C3.96 0 7.92 0 12 0 C12 6.6 12 13.2 12 20 C3.7998381 12.9712898 1.94572568 10.02797079 0 0 Z " fill="#FAFDFD" transform="translate(314,213)"/>
<path d="M0 0 C2.875 -0.125 2.875 -0.125 6 0 C8 2 8 2 8.01171875 3.875 C7.90472656 4.57625 7.79773438 5.2775 7.6875 6 C7.58824219 6.70125 7.48898438 7.4025 7.38671875 8.125 C7 10 7 10 6 12 C8.475 12.99 8.475 12.99 11 14 C11 14.66 11 15.32 11 16 C7.04 16.33 3.08 16.66 -1 17 C0 12 0 12 2 9 C1.484375 8.62875 0.96875 8.2575 0.4375 7.875 C-1 6 -1 6 -0.6875 2.8125 C-0.460625 1.884375 -0.23375 0.95625 0 0 Z " fill="#FCFCFC" transform="translate(162,70)"/>
<path d="M0 0 C-0.66 3.96 -1.32 7.92 -2 12 C-0.68 12 0.64 12 2 12 C2 13.32 2 14.64 2 16 C-1.96 16 -5.92 16 -10 16 C-10 14.68 -10 13.36 -10 12 C-8.68 12 -7.36 12 -6 12 C-6 10.68 -6 9.36 -6 8 C-6.99 7.67 -7.98 7.34 -9 7 C-6.79922603 2.09058114 -5.62803596 0 0 0 Z " fill="#F1FAFA" transform="translate(425,23)"/>
<path d="M0 0 C0 4.62 0 9.24 0 14 C-6.71526587 12.65694683 -6.71526587 12.65694683 -9 11 C-9.609375 8.6171875 -9.609375 8.6171875 -9.75 5.875 C-9.80671875 4.96492188 -9.8634375 4.05484375 -9.921875 3.1171875 C-9.94765625 2.41851562 -9.9734375 1.71984375 -10 1 C-8.5209084 0.83266843 -7.04172444 0.66615314 -5.5625 0.5 C-4.32693359 0.36078125 -4.32693359 0.36078125 -3.06640625 0.21875 C-1 0 -1 0 0 0 Z " fill="#E3A4A4" transform="translate(287,123)"/>
<path d="M0 0 C0.19294408 4.82360189 -0.24252386 8.49646738 -2 13 C-0.35 13 1.3 13 3 13 C2.67 13.99 2.34 14.98 2 16 C-1.96 16 -5.92 16 -10 16 C-10 15.01 -10 14.02 -10 13 C-8.35 13 -6.7 13 -5 13 C-5 11.35 -5 9.7 -5 8 C-5.99 8 -6.98 8 -8 8 C-7.32253522 3.25774652 -4.9532836 0 0 0 Z " fill="#FEFEFE" transform="translate(285,43)"/>
<path d="M0 0 C2.375 -0.125 2.375 -0.125 5 0 C7.69101234 2.69101234 7.29887549 4.19075946 7.3125 7.9375 C7.32925781 8.99839844 7.34601562 10.05929688 7.36328125 11.15234375 C7 14 7 14 5.6484375 15.8671875 C3.38627648 17.42175313 1.67977034 17.21727868 -1 17 C-0.67 15.68 -0.34 14.36 0 13 C0.99 13 1.98 13 3 13 C3 12.34 3 11.68 3 11 C1.68 10.67 0.36 10.34 -1 10 C-0.6875 8.125 -0.6875 8.125 0 6 C0.99 5.34 1.98 4.68 3 4 C2.01 3.67 1.02 3.34 0 3 C0 2.01 0 1.02 0 0 Z " fill="#FEFEFE" transform="translate(568,70)"/>
<path d="M0 0 C0.50512244 1.60256108 1.00391627 3.20711792 1.5 4.8125 C1.7784375 5.70582031 2.056875 6.59914062 2.34375 7.51953125 C3 10 3 10 3 13 C0.36 13 -2.28 13 -5 13 C-6.3271261 9.0186217 -6.06915913 5.14954773 -6 1 C-3.92446352 0.4465236 -2.15634036 0 0 0 Z " fill="#A06770" transform="translate(227,211)"/>
<path d="M0 0 C-1.11828963 3.28031624 -2.11000257 5.46208947 -5.1328125 7.2890625 C-11.19829137 10 -11.19829137 10 -14 10 C-14 7.8125 -14 7.8125 -13 5 C-9.16503551 1.68472696 -5.21516719 -0.81486987 0 0 Z " fill="#3E3D4E" transform="translate(138,175)"/>
<path d="M0 0 C2.33944736 0.28730055 4.6739143 0.61936779 7 1 C7 2.65 7 4.3 7 6 C4.36 6 1.72 6 -1 6 C-1.042721 4.33388095 -1.04063832 2.66617115 -1 1 C-0.67 0.67 -0.34 0.34 0 0 Z " fill="#E4A2A3" transform="translate(553,143)"/>
</svg>
